<svg width="12" height="13" viewBox="0 0 12 13" fill="none" xmlns="http://www.w3.org/2000/svg">
<circle cx="6" cy="6.6665" r="6" fill="black"/>
<g clip-path="url(#clip0)">
<path d="M9.09368 4.0885C9.09378 3.9077 9.04634 3.73005 8.95613 3.57337C8.86591 3.41668 8.73609 3.28647 8.57967 3.19578C8.42326 3.1051 8.24575 3.05713 8.06495 3.05669C7.88415 3.05624 7.70641 3.10334 7.54955 3.19326C7.3927 3.28318 7.26224 3.41276 7.17126 3.569C7.08028 3.72524 7.03197 3.90266 7.03119 4.08346C7.0304 4.26426 7.07717 4.44208 7.16679 4.59911C7.25641 4.75614 7.38574 4.88684 7.54181 4.97812C7.51296 5.3144 7.35699 5.59203 7.07662 5.80457C6.79061 6.0221 6.3881 6.151 5.99993 6.151C5.61176 6.151 5.20925 6.0221 4.92324 5.80457C4.64287 5.59203 4.48689 5.3144 4.45805 4.97812C4.65394 4.86357 4.80658 4.68761 4.89232 4.4775C4.97805 4.2674 4.99209 4.03488 4.93226 3.81598C4.87242 3.59709 4.74206 3.40404 4.56137 3.26676C4.38068 3.12948 4.15976 3.05562 3.93284 3.05665C3.70591 3.05768 3.48566 3.13352 3.30622 3.27244C3.12678 3.41135 2.99817 3.60557 2.94032 3.82499C2.88247 4.04442 2.89861 4.2768 2.98625 4.48613C3.07388 4.69545 3.2281 4.87002 3.42503 4.98279C3.45854 5.64134 3.76614 6.22142 4.30014 6.62635C4.63513 6.88029 5.04924 7.05641 5.4843 7.13536V8.35224C5.2877 8.46574 5.13405 8.64095 5.04718 8.85068C4.9603 9.06042 4.94506 9.29296 5.00382 9.51223C5.06257 9.73151 5.19204 9.92528 5.37214 10.0635C5.55224 10.2017 5.77291 10.2766 5.99993 10.2766C6.22694 10.2766 6.44761 10.2017 6.62771 10.0635C6.80781 9.92528 6.93728 9.73151 6.99604 9.51223C7.05479 9.29296 7.03955 9.06042 6.95268 8.85068C6.8658 8.64095 6.71215 8.46574 6.51555 8.35224V7.13536C6.95061 7.05641 7.36472 6.88029 7.69972 6.62635C8.23371 6.22142 8.54131 5.64134 8.57483 4.98279C8.73238 4.89259 8.86332 4.76239 8.95442 4.60537C9.04552 4.44834 9.09356 4.27005 9.09368 4.0885ZM3.93743 3.57288C4.03941 3.57288 4.1391 3.60312 4.22389 3.65978C4.30869 3.71644 4.37478 3.79696 4.4138 3.89118C4.45283 3.9854 4.46304 4.08908 4.44315 4.1891C4.42325 4.28912 4.37414 4.38099 4.30203 4.45311C4.22992 4.52522 4.13804 4.57433 4.03802 4.59422C3.938 4.61412 3.83433 4.60391 3.74011 4.56488C3.64589 4.52585 3.56536 4.45976 3.5087 4.37497C3.45204 4.29018 3.4218 4.19048 3.4218 4.0885C3.4218 3.95175 3.47613 3.8206 3.57283 3.7239C3.66953 3.6272 3.80068 3.57288 3.93743 3.57288ZM5.99993 9.76038C5.89795 9.76038 5.79826 9.73014 5.71346 9.67348C5.62867 9.61682 5.56258 9.53629 5.52355 9.44207C5.48453 9.34786 5.47432 9.24418 5.49421 9.14416C5.51411 9.04414 5.56321 8.95226 5.63533 8.88015C5.70744 8.80804 5.79931 8.75893 5.89933 8.73904C5.99936 8.71914 6.10303 8.72935 6.19725 8.76838C6.29147 8.8074 6.372 8.87349 6.42865 8.95829C6.48531 9.04308 6.51555 9.14277 6.51555 9.24475C6.51555 9.38151 6.46123 9.51266 6.36453 9.60935C6.26783 9.70605 6.13668 9.76038 5.99993 9.76038ZM8.06243 4.60413C7.96045 4.60413 7.86076 4.57389 7.77596 4.51723C7.69117 4.46057 7.62508 4.38004 7.58605 4.28583C7.54703 4.19161 7.53681 4.08793 7.55671 3.98791C7.57661 3.88789 7.62571 3.79601 7.69783 3.7239C7.76994 3.65179 7.86181 3.60268 7.96183 3.58279C8.06186 3.56289 8.16553 3.5731 8.25975 3.61213C8.35397 3.65116 8.4345 3.71724 8.49115 3.80204C8.54781 3.88683 8.57805 3.98652 8.57805 4.0885C8.57805 4.22526 8.52373 4.35641 8.42703 4.45311C8.33033 4.5498 8.19918 4.60413 8.06243 4.60413Z" fill="white"/>
</g>
<defs>
<clipPath id="clip0">
<rect width="8.25" height="8.25" fill="white" transform="translate(1.875 2.5415)"/>
</clipPath>
</defs>
</svg>
