<svg width="12" height="13" viewBox="0 0 12 13" fill="none" xmlns="http://www.w3.org/2000/svg">
<path d="M10.4895 2.67517H7.875V1.55017C7.875 1.45071 7.83549 1.35533 7.76516 1.28501C7.69484 1.21468 7.59945 1.17517 7.5 1.17517H4.5C4.40054 1.17517 4.30516 1.21468 4.23483 1.28501C4.16451 1.35533 4.125 1.45071 4.125 1.55017V2.67517H1.51055L1.5 3.61267H2.27344L2.7443 10.972C2.75621 11.1624 2.84018 11.341 2.97911 11.4716C3.11804 11.6022 3.3015 11.675 3.49219 11.6752H8.50781C8.69839 11.6751 8.88181 11.6026 9.02081 11.4722C9.15981 11.3418 9.24396 11.1634 9.25617 10.9732L9.72656 3.61267H10.5L10.4895 2.67517ZM4.125 10.1752L3.91406 4.17517H4.6875L4.89844 10.1752H4.125ZM6.375 10.1752H5.625V4.17517H6.375V10.1752ZM6.9375 2.67517H5.0625V2.01892C5.0625 1.99406 5.07238 1.97021 5.08996 1.95263C5.10754 1.93505 5.13138 1.92517 5.15625 1.92517H6.84375C6.86861 1.92517 6.89246 1.93505 6.91004 1.95263C6.92762 1.97021 6.9375 1.99406 6.9375 2.01892V2.67517ZM7.875 10.1752H7.10156L7.3125 4.17517H8.08594L7.875 10.1752Z" fill="#C4C4C4"/>
</svg>
