<svg width="27" height="27" viewBox="0 0 27 27" fill="none" xmlns="http://www.w3.org/2000/svg">
<path d="M26.5144 13.2504C26.5144 6.07099 20.6938 0.250366 13.5144 0.250366C6.33503 0.250366 0.514404 6.07099 0.514404 13.2504C0.514404 20.4297 6.33503 26.2504 13.5144 26.2504C20.6938 26.2504 26.5144 20.4297 26.5144 13.2504ZM13.2238 18.9604C13.1305 18.8679 13.0564 18.7579 13.0057 18.6368C12.9549 18.5156 12.9285 18.3857 12.928 18.2543C12.9275 18.123 12.9528 17.9928 13.0026 17.8713C13.0524 17.7498 13.1256 17.6392 13.2182 17.546L16.4882 14.2504H8.1394C7.87419 14.2504 7.61983 14.145 7.4323 13.9575C7.24476 13.7699 7.1394 13.5156 7.1394 13.2504C7.1394 12.9851 7.24476 12.7308 7.4323 12.5433C7.61983 12.3557 7.87419 12.2504 8.1394 12.2504H16.4882L13.2182 8.95474C13.1257 8.86142 13.0524 8.75079 13.0027 8.62918C12.9529 8.50756 12.9276 8.37734 12.9282 8.24595C12.9288 8.11455 12.9553 7.98456 13.0061 7.86339C13.0569 7.74222 13.1311 7.63224 13.2244 7.53974C13.3177 7.44724 13.4284 7.37403 13.55 7.32428C13.6716 7.27453 13.8018 7.24923 13.9332 7.24981C14.1986 7.25098 14.4526 7.35752 14.6394 7.54599L19.6013 12.546C19.7871 12.7333 19.8914 12.9865 19.8914 13.2504C19.8914 13.5142 19.7871 13.7674 19.6013 13.9547L14.6394 18.9547C14.5469 19.0482 14.4369 19.1225 14.3156 19.1733C14.1943 19.2242 14.0642 19.2506 13.9328 19.2512C13.8013 19.2517 13.671 19.2263 13.5493 19.1764C13.4277 19.1265 13.317 19.0531 13.2238 18.9604Z" fill="black"/>
</svg>
