<svg width="8" height="9" viewBox="0 0 8 9" fill="none" xmlns="http://www.w3.org/2000/svg">
<g clip-path="url(#clip0)">
<path d="M6.5625 3.49951H5.5V2.24951C5.5 1.85169 5.34196 1.47016 5.06066 1.18885C4.77936 0.907547 4.39782 0.749512 4 0.749512C3.60218 0.749512 3.22064 0.907547 2.93934 1.18885C2.65804 1.47016 2.5 1.85169 2.5 2.24951V3.49951H1.4375C1.38777 3.49951 1.34008 3.51927 1.30492 3.55443C1.26975 3.58959 1.25 3.63728 1.25 3.68701V8.06201C1.25 8.11174 1.26975 8.15943 1.30492 8.19459C1.34008 8.22976 1.38777 8.24951 1.4375 8.24951H6.5625C6.61223 8.24951 6.65992 8.22976 6.69508 8.19459C6.73025 8.15943 6.75 8.11174 6.75 8.06201V3.68701C6.75 3.63728 6.73025 3.58959 6.69508 3.55443C6.65992 3.51927 6.61223 3.49951 6.5625 3.49951ZM4.90625 3.49951H3.09375V2.23779C3.09375 1.99744 3.18923 1.76693 3.35918 1.59698C3.52914 1.42702 3.75965 1.33154 4 1.33154C4.24035 1.33154 4.47086 1.42702 4.64082 1.59698C4.81077 1.76693 4.90625 1.99744 4.90625 2.23779V3.49951Z" fill="#0084FF"/>
</g>
<defs>
<clipPath id="clip0">
<rect width="8" height="8" fill="white" transform="translate(0 0.499756)"/>
</clipPath>
</defs>
</svg>
