<svg width="16" height="16" viewBox="0 0 16 16" fill="none" xmlns="http://www.w3.org/2000/svg">
<path d="M13.9859 3.00024H10.4999V1.50024C10.4999 1.36764 10.4473 1.24046 10.3535 1.14669C10.2597 1.05292 10.1325 1.00024 9.99994 1.00024H5.99994C5.86733 1.00024 5.74015 1.05292 5.64638 1.14669C5.55262 1.24046 5.49994 1.36764 5.49994 1.50024V3.00024H2.014L1.99994 4.25024H3.03119L3.659 14.0627C3.67489 14.3165 3.78684 14.5547 3.97208 14.7288C4.15732 14.903 4.40194 15 4.65619 15.0002H11.3437C11.5978 15.0002 11.8424 14.9034 12.0277 14.7296C12.213 14.5558 12.3252 14.3179 12.3415 14.0643L12.9687 4.25024H13.9999L13.9859 3.00024ZM5.49994 13.0002L5.21869 5.00024H6.24994L6.53119 13.0002H5.49994ZM8.49994 13.0002H7.49994V5.00024H8.49994V13.0002ZM9.24994 3.00024H6.74994V2.12524C6.74994 2.09209 6.76311 2.0603 6.78655 2.03686C6.80999 2.01341 6.84179 2.00024 6.87494 2.00024H9.12494C9.15809 2.00024 9.18988 2.01341 9.21333 2.03686C9.23677 2.0603 9.24994 2.09209 9.24994 2.12524V3.00024ZM10.4999 13.0002H9.46869L9.74994 5.00024H10.7812L10.4999 13.0002Z" fill="black"/>
</svg>
