<svg width="27" height="27" viewBox="0 0 29 29" fill="none" xmlns="http://www.w3.org/2000/svg">
<circle cx="12.5273" cy="12.3887" r="12" fill="black"/>
<path d="M18.7147 7.2317C18.7149 6.87009 18.62 6.51479 18.4396 6.20142C18.2592 5.88805 17.9995 5.62762 17.6867 5.44625C17.3739 5.26488 17.0188 5.16894 16.6572 5.16806C16.2956 5.16717 15.9402 5.26137 15.6265 5.44121C15.3127 5.62105 15.0518 5.8802 14.8699 6.19268C14.6879 6.50517 14.5913 6.86 14.5897 7.2216C14.5881 7.5832 14.6817 7.93886 14.8609 8.25291C15.0402 8.56696 15.2988 8.82837 15.611 9.01092C15.5533 9.68349 15.2413 10.2388 14.6806 10.6638C14.1086 11.0989 13.3035 11.3567 12.5272 11.3567C11.7509 11.3567 10.9458 11.0989 10.3738 10.6638C9.81308 10.2388 9.50113 9.68349 9.44344 9.01092C9.83523 8.78183 10.1405 8.42991 10.312 8.0097C10.4834 7.58948 10.5115 7.12444 10.3919 6.68665C10.2722 6.24886 10.0115 5.86277 9.65009 5.5882C9.28871 5.31364 8.84686 5.16594 8.39301 5.16799C7.93917 5.17004 7.49867 5.32174 7.13979 5.59956C6.78091 5.87738 6.52369 6.26582 6.40799 6.70468C6.29229 7.14353 6.32457 7.60829 6.49984 8.02694C6.6751 8.44558 6.98355 8.79473 7.3774 9.02027C7.44443 10.3374 8.05963 11.4975 9.12762 12.3074C9.79761 12.8153 10.6258 13.1675 11.4959 13.3254V15.7592C11.1028 15.9862 10.7954 16.3366 10.6217 16.7561C10.4479 17.1755 10.4175 17.6406 10.535 18.0792C10.6525 18.5177 10.9114 18.9052 11.2716 19.1816C11.6318 19.458 12.0732 19.6078 12.5272 19.6078C12.9812 19.6078 13.4226 19.458 13.7828 19.1816C14.143 18.9052 14.4019 18.5177 14.5194 18.0792C14.6369 17.6406 14.6064 17.1755 14.4327 16.7561C14.259 16.3366 13.9516 15.9862 13.5584 15.7592V13.3254C14.4286 13.1675 15.2568 12.8153 15.9268 12.3074C16.9948 11.4975 17.61 10.3374 17.677 9.02027C17.9921 8.83986 18.254 8.57947 18.4362 8.26542C18.6184 7.95137 18.7145 7.59478 18.7147 7.2317ZM8.4022 6.20045C8.60616 6.20045 8.80554 6.26093 8.97513 6.37424C9.14472 6.48756 9.2769 6.64862 9.35495 6.83705C9.433 7.02549 9.45343 7.23284 9.41364 7.43288C9.37384 7.63293 9.27563 7.81668 9.1314 7.9609C8.98718 8.10512 8.80343 8.20334 8.60339 8.24313C8.40335 8.28292 8.196 8.2625 8.00756 8.18445C7.81912 8.10639 7.65806 7.97422 7.54475 7.80463C7.43143 7.63504 7.37095 7.43566 7.37095 7.2317C7.37095 6.95819 7.4796 6.69589 7.673 6.50249C7.86639 6.30909 8.1287 6.20045 8.4022 6.20045ZM12.5272 18.5754C12.3232 18.5754 12.1239 18.515 11.9543 18.4016C11.7847 18.2883 11.6525 18.1273 11.5744 17.9388C11.4964 17.7504 11.476 17.543 11.5158 17.343C11.5556 17.143 11.6538 16.9592 11.798 16.815C11.9422 16.6708 12.126 16.5725 12.326 16.5328C12.5261 16.493 12.7334 16.5134 12.9218 16.5914C13.1103 16.6695 13.2713 16.8017 13.3847 16.9713C13.498 17.1408 13.5584 17.3402 13.5584 17.5442C13.5584 17.8177 13.4498 18.08 13.2564 18.2734C13.063 18.4668 12.8007 18.5754 12.5272 18.5754ZM16.6522 8.26295C16.4482 8.26295 16.2489 8.20246 16.0793 8.08915C15.9097 7.97583 15.7775 7.81477 15.6994 7.62634C15.6214 7.4379 15.601 7.23055 15.6408 7.03051C15.6806 6.83047 15.7788 6.64671 15.923 6.50249C16.0672 6.35827 16.251 6.26005 16.451 6.22026C16.6511 6.18047 16.8584 6.20089 17.0468 6.27894C17.2353 6.357 17.3963 6.48918 17.5097 6.65876C17.623 6.82835 17.6834 7.02773 17.6834 7.2317C17.6834 7.5052 17.5748 7.7675 17.3814 7.9609C17.188 8.1543 16.9257 8.26295 16.6522 8.26295Z" fill="white"/>
</svg>
