<svg width="259" height="33" viewBox="0 0 259 33" fill="none" xmlns="http://www.w3.org/2000/svg">
<path d="M0 31.1566V0.52626H12.0239C14.6862 0.52626 16.7194 1.30153 18.1237 2.85206C19.5279 4.37333 20.2301 6.45046 20.2301 9.08344C20.2301 11.7457 19.5279 13.8521 18.1237 15.4026C16.7194 16.9239 14.6862 17.6845 12.0239 17.6845H2.63298V31.1566H0ZM2.63298 15.3587H12.0239C13.7793 15.3587 15.1104 14.876 16.0173 13.9106C16.9535 12.9159 17.4215 11.6579 17.4215 10.1366V8.03025C17.4215 6.53823 16.9535 5.3095 16.0173 4.34408C15.1104 3.3494 13.7793 2.85206 12.0239 2.85206H2.63298V15.3587Z" fill="black"/>
<path d="M42.1517 31.1566H39.5187V0.52626H51.5426C54.1756 0.52626 56.1942 1.27227 57.5985 2.76429C59.032 4.25631 59.7487 6.34807 59.7487 9.03956C59.7487 11.4092 59.1636 13.3255 57.9934 14.7882C56.8525 16.251 55.1849 17.1287 52.9908 17.4212L60.5386 31.1566H57.5985L50.27 17.5967H42.1517V31.1566ZM51.5426 15.3587C53.2979 15.3587 54.629 14.876 55.536 13.9106C56.4721 12.9159 56.9402 11.6579 56.9402 10.1366V8.03025C56.9402 6.53823 56.4721 5.3095 55.536 4.34408C54.629 3.3494 53.2979 2.85206 51.5426 2.85206H42.1517V15.3587H51.5426Z" fill="black" fill-opacity="0.9"/>
<path d="M88.9515 33C85.0313 33 81.9595 31.6689 79.736 29.0066C77.5126 26.3152 76.4009 22.3657 76.4009 17.1582C76.4009 11.9508 77.5126 8.01595 79.736 5.35372C81.9595 2.66223 85.0313 1.31648 88.9515 1.31648C92.8424 1.31648 95.8996 2.66223 98.123 5.35372C100.346 8.04521 101.458 11.98 101.458 17.1582C101.458 22.3364 100.346 26.2713 98.123 28.9628C95.8996 31.6542 92.8424 33 88.9515 33ZM88.9515 30.6303C90.4142 30.6303 91.7307 30.3816 92.9009 29.8843C94.1004 29.3577 95.1243 28.5971 95.9728 27.6024C96.8212 26.6077 97.4794 25.3936 97.9475 23.9601C98.4156 22.5266 98.6496 20.9029 98.6496 19.0891V15.2274C98.6496 13.4136 98.4156 11.7899 97.9475 10.3564C97.4794 8.92287 96.8212 7.7234 95.9728 6.75797C95.1243 5.76329 94.1004 5.00265 92.9009 4.47606C91.7307 3.94946 90.4142 3.68616 88.9515 3.68616C87.4887 3.68616 86.1576 3.94946 84.9581 4.47606C83.7587 5.00265 82.7347 5.76329 81.8863 6.75797C81.0379 7.7234 80.3797 8.92287 79.9116 10.3564C79.4435 11.7899 79.2095 13.4136 79.2095 15.2274V19.0891C79.2095 20.9029 79.4435 22.5266 79.9116 23.9601C80.3797 25.3936 81.0379 26.6077 81.8863 27.6024C82.7347 28.5971 83.7587 29.3577 84.9581 29.8843C86.1576 30.3816 87.4887 30.6303 88.9515 30.6303Z" fill="black" fill-opacity="0.8"/>
<path d="M134.274 31.6835C130.471 31.6835 127.53 30.367 125.453 27.734C123.376 25.0718 122.338 21.137 122.338 15.9295C122.338 10.7513 123.376 6.80186 125.453 4.08112C127.53 1.36037 130.471 0 134.274 0C136.731 0 138.794 0.585106 140.461 1.75532C142.158 2.92553 143.475 4.51995 144.411 6.53856L142.26 7.81117C141.588 6.14362 140.564 4.82713 139.189 3.8617C137.843 2.86702 136.205 2.36968 134.274 2.36968C131.407 2.36968 129.169 3.39362 127.56 5.44149C125.951 7.48936 125.146 10.4149 125.146 14.2181V17.6848C125.146 21.4588 125.951 24.3404 127.56 26.3298C129.169 28.3191 131.407 29.3138 134.274 29.3138C136.322 29.3138 138.033 28.8019 139.408 27.7779C140.783 26.7247 141.807 25.3205 142.48 23.5652L144.63 24.8378C143.723 26.9441 142.392 28.6117 140.637 29.8404C138.881 31.0691 136.76 31.6835 134.274 31.6835Z" fill="black" fill-opacity="0.7"/>
<path d="M164.167 31.1566V0.52626H182.071V2.85206H166.8V14.4372H181.325V16.763H166.8V28.8308H182.071V31.1566H164.167Z" fill="black" fill-opacity="0.6"/>
<path d="M210.647 31.6835C208.131 31.6835 206.025 31.2154 204.328 30.2793C202.661 29.3138 201.227 28.0412 200.028 26.4614L202.002 24.8378C203.085 26.2713 204.299 27.383 205.645 28.1729C207.02 28.9628 208.716 29.3577 210.735 29.3577C213.105 29.3577 214.918 28.8019 216.176 27.6902C217.464 26.5492 218.107 24.9694 218.107 22.9508C218.107 21.0785 217.566 19.7035 216.484 18.8258C215.401 17.9481 213.88 17.3045 211.92 16.8949L209.199 16.3245C206.274 15.7394 204.153 14.7593 202.836 13.3843C201.52 12.0093 200.861 10.254 200.861 8.11835C200.861 6.77261 201.095 5.60239 201.563 4.60771C202.032 3.58378 202.69 2.73537 203.538 2.0625C204.416 1.38963 205.454 0.877659 206.654 0.526597C207.883 0.175532 209.228 0 210.691 0C212.973 0 214.904 0.409574 216.484 1.22872C218.063 2.04787 219.365 3.20346 220.389 4.69548L218.415 6.14362C217.566 4.91489 216.498 3.97872 215.211 3.33511C213.953 2.66224 212.403 2.3258 210.559 2.3258C208.365 2.3258 206.625 2.80851 205.337 3.77394C204.079 4.71011 203.45 6.12899 203.45 8.03059C203.45 9.84441 204.021 11.1755 205.162 12.0239C206.303 12.8723 207.824 13.4867 209.726 13.867L212.446 14.4375C215.489 15.1104 217.625 16.1489 218.853 17.5532C220.082 18.9574 220.696 20.7128 220.696 22.8191C220.696 25.6277 219.804 27.8072 218.02 29.3577C216.235 30.9082 213.778 31.6835 210.647 31.6835Z" fill="black" fill-opacity="0.5"/>
<path d="M248.411 31.6835C245.895 31.6835 243.788 31.2154 242.091 30.2793C240.424 29.3138 238.99 28.0412 237.791 26.4614L239.766 24.8378C240.848 26.2713 242.062 27.383 243.408 28.1729C244.783 28.9628 246.48 29.3577 248.498 29.3577C250.868 29.3577 252.682 28.8019 253.94 27.6902C255.227 26.5492 255.871 24.9694 255.871 22.9508C255.871 21.0785 255.329 19.7035 254.247 18.8258C253.165 17.9481 251.643 17.3045 249.683 16.8949L246.962 16.3245C244.037 15.7394 241.916 14.7593 240.599 13.3843C239.283 12.0093 238.625 10.254 238.625 8.11835C238.625 6.77261 238.859 5.60239 239.327 4.60771C239.795 3.58378 240.453 2.73537 241.302 2.0625C242.179 1.38963 243.218 0.877659 244.417 0.526597C245.646 0.175532 246.992 0 248.454 0C250.736 0 252.667 0.409574 254.247 1.22872C255.827 2.04787 257.129 3.20346 258.153 4.69548L256.178 6.14362C255.329 4.91489 254.262 3.97872 252.974 3.33511C251.716 2.66224 250.166 2.3258 248.323 2.3258C246.129 2.3258 244.388 2.80851 243.101 3.77394C241.843 4.71011 241.214 6.12899 241.214 8.03059C241.214 9.84441 241.784 11.1755 242.925 12.0239C244.066 12.8723 245.587 13.4867 247.489 13.867L250.21 14.4375C253.252 15.1104 255.388 16.1489 256.617 17.5532C257.845 18.9574 258.46 20.7128 258.46 22.8191C258.46 25.6277 257.567 27.8072 255.783 29.3577C253.998 30.9082 251.541 31.6835 248.411 31.6835Z" fill="black" fill-opacity="0.4"/>
</svg>
