<svg width="135" height="18" viewBox="0 0 135 18" fill="none" xmlns="http://www.w3.org/2000/svg">
<path d="M0.5 16.4068V0.526367H6.73388C8.11413 0.526367 9.16828 0.928308 9.89632 1.73219C10.6244 2.5209 10.9884 3.5978 10.9884 4.96289C10.9884 6.34314 10.6244 7.43521 9.89632 8.23909C9.16828 9.0278 8.11413 9.42216 6.73388 9.42216H1.86508V16.4068H0.5ZM1.86508 8.21634H6.73388C7.64394 8.21634 8.33406 7.96607 8.80426 7.46554C9.28962 6.94984 9.5323 6.29764 9.5323 5.50892V4.41685C9.5323 3.64331 9.28962 3.00627 8.80426 2.50574C8.33406 1.99004 7.64394 1.73219 6.73388 1.73219H1.86508V8.21634Z" fill="white"/>
<path d="M22.3538 16.4068H20.9887V0.526367H27.2226C28.5876 0.526367 29.6342 0.913141 30.3622 1.68669C31.1055 2.46024 31.4771 3.54472 31.4771 4.94014C31.4771 6.16871 31.1737 7.16219 30.567 7.92057C29.9755 8.67895 29.1109 9.13398 27.9734 9.28565L31.8866 16.4068H30.3622L26.5628 9.37666H22.3538V16.4068ZM27.2226 8.21634C28.1326 8.21634 28.8227 7.96607 29.2929 7.46554C29.7783 6.94984 30.021 6.29764 30.021 5.50892V4.41685C30.021 3.64331 29.7783 3.00627 29.2929 2.50574C28.8227 1.99004 28.1326 1.73219 27.2226 1.73219H22.3538V8.21634H27.2226Z" fill="white" fill-opacity="0.9"/>
<path d="M46.6173 17.3633C44.5849 17.3633 42.9923 16.6731 41.8395 15.2929C40.6868 13.8975 40.1104 11.8499 40.1104 9.15002C40.1104 6.45019 40.6868 4.41015 41.8395 3.0299C42.9923 1.63448 44.5849 0.936768 46.6173 0.936768C48.6346 0.936768 50.2196 1.63448 51.3724 3.0299C52.5251 4.42531 53.1015 6.46536 53.1015 9.15002C53.1015 11.8347 52.5251 13.8747 51.3724 15.2701C50.2196 16.6656 48.6346 17.3633 46.6173 17.3633ZM46.6173 16.1347C47.3757 16.1347 48.0582 16.0058 48.6649 15.7479C49.2868 15.4749 49.8177 15.0805 50.2575 14.5648C50.6974 14.0492 51.0387 13.4197 51.2813 12.6765C51.524 11.9333 51.6454 11.0915 51.6454 10.1511V8.14896C51.6454 7.20857 51.524 6.36677 51.2813 5.62355C51.0387 4.88034 50.6974 4.25847 50.2575 3.75794C49.8177 3.24224 49.2868 2.84789 48.6649 2.57487C48.0582 2.30185 47.3757 2.16534 46.6173 2.16534C45.8589 2.16534 45.1688 2.30185 44.5469 2.57487C43.9251 2.84789 43.3942 3.24224 42.9543 3.75794C42.5145 4.25847 42.1732 4.88034 41.9305 5.62355C41.6878 6.36677 41.5665 7.20857 41.5665 8.14896V10.1511C41.5665 11.0915 41.6878 11.9333 41.9305 12.6765C42.1732 13.4197 42.5145 14.0492 42.9543 14.5648C43.3942 15.0805 43.9251 15.4749 44.5469 15.7479C45.1688 16.0058 45.8589 16.1347 46.6173 16.1347Z" fill="white" fill-opacity="0.8"/>
<path d="M70.115 16.6804C68.1433 16.6804 66.6189 15.9979 65.542 14.6328C64.4651 13.2525 63.9267 11.2125 63.9267 8.51266C63.9267 5.828 64.4651 3.78037 65.542 2.36979C66.6189 0.959199 68.1433 0.253906 70.115 0.253906C71.3891 0.253906 72.4584 0.557258 73.323 1.16396C74.2027 1.77067 74.8853 2.5973 75.3706 3.64386L74.2558 4.30365C73.9069 3.4391 73.3761 2.75656 72.6632 2.25603C71.9655 1.74033 71.1161 1.48248 70.115 1.48248C68.6286 1.48248 67.4683 2.01335 66.6341 3.07508C65.7999 4.13681 65.3828 5.65357 65.3828 7.62536V9.42272C65.3828 11.3793 65.7999 12.8733 66.6341 13.9047C67.4683 14.9361 68.6286 15.4518 70.115 15.4518C71.1768 15.4518 72.0641 15.1864 72.777 14.6555C73.4898 14.1095 74.0207 13.3815 74.3696 12.4714L75.4844 13.1312C75.0142 14.2233 74.3241 15.0878 73.414 15.7249C72.5039 16.3619 71.4043 16.6804 70.115 16.6804Z" fill="white" fill-opacity="0.7"/>
<path d="M85.6135 16.4068V0.526367H94.8961V1.73219H86.9786V7.73856H94.5093V8.94438H86.9786V15.201H94.8961V16.4068H85.6135Z" fill="white" fill-opacity="0.6"/>
<path d="M109.711 16.6804C108.407 16.6804 107.315 16.4377 106.435 15.9524C105.571 15.4518 104.827 14.792 104.205 13.973L105.229 13.1312C105.79 13.8744 106.42 14.4508 107.118 14.8603C107.83 15.2698 108.71 15.4746 109.757 15.4746C110.985 15.4746 111.926 15.1864 112.578 14.61C113.245 14.0185 113.579 13.1994 113.579 12.1529C113.579 11.1822 113.298 10.4693 112.737 10.0143C112.176 9.55923 111.387 9.22554 110.371 9.01319L108.96 8.71742C107.444 8.41407 106.344 7.90596 105.662 7.19308C104.979 6.4802 104.638 5.57015 104.638 4.46291C104.638 3.7652 104.759 3.1585 105.002 2.6428C105.244 2.11194 105.586 1.67208 106.026 1.32322C106.481 0.974367 107.019 0.708934 107.641 0.526923C108.278 0.344912 108.976 0.253906 109.734 0.253906C110.917 0.253906 111.918 0.466253 112.737 0.890945C113.556 1.31564 114.231 1.91476 114.762 2.6883L113.738 3.4391C113.298 2.80206 112.745 2.3167 112.077 1.98301C111.425 1.63416 110.621 1.45973 109.666 1.45973C108.528 1.45973 107.626 1.71 106.958 2.21053C106.306 2.69589 105.98 3.43152 105.98 4.41741C105.98 5.3578 106.276 6.04793 106.867 6.48779C107.459 6.92765 108.248 7.24617 109.233 7.44335L110.644 7.73911C112.221 8.08797 113.329 8.62642 113.966 9.35446C114.603 10.0825 114.921 10.9926 114.921 12.0846C114.921 13.5407 114.459 14.6707 113.533 15.4746C112.608 16.2785 111.334 16.6804 109.711 16.6804Z" fill="white" fill-opacity="0.5"/>
<path d="M129.29 16.6804C127.986 16.6804 126.893 16.4377 126.014 15.9524C125.149 15.4518 124.406 14.792 123.784 13.973L124.808 13.1312C125.369 13.8744 125.999 14.4508 126.696 14.8603C127.409 15.2698 128.289 15.4746 129.335 15.4746C130.564 15.4746 131.504 15.1864 132.157 14.61C132.824 14.0185 133.158 13.1994 133.158 12.1529C133.158 11.1822 132.877 10.4693 132.316 10.0143C131.755 9.55923 130.966 9.22554 129.95 9.01319L128.539 8.71742C127.022 8.41407 125.923 7.90596 125.24 7.19308C124.558 6.4802 124.216 5.57015 124.216 4.46291C124.216 3.7652 124.338 3.1585 124.58 2.6428C124.823 2.11194 125.164 1.67208 125.604 1.32322C126.059 0.974367 126.598 0.708934 127.22 0.526923C127.857 0.344912 128.554 0.253906 129.313 0.253906C130.496 0.253906 131.497 0.466253 132.316 0.890945C133.135 1.31564 133.81 1.91476 134.341 2.6883L133.317 3.4391C132.877 2.80206 132.323 2.3167 131.656 1.98301C131.004 1.63416 130.2 1.45973 129.244 1.45973C128.107 1.45973 127.204 1.71 126.537 2.21053C125.885 2.69589 125.559 3.43152 125.559 4.41741C125.559 5.3578 125.854 6.04793 126.446 6.48779C127.038 6.92765 127.826 7.24617 128.812 7.44335L130.223 7.73911C131.8 8.08797 132.907 8.62642 133.544 9.35446C134.182 10.0825 134.5 10.9926 134.5 12.0846C134.5 13.5407 134.037 14.6707 133.112 15.4746C132.187 16.2785 130.913 16.6804 129.29 16.6804Z" fill="white" fill-opacity="0.4"/>
</svg>
