<svg width="84" height="12" viewBox="0 0 84 12" fill="none" xmlns="http://www.w3.org/2000/svg">
<path d="M0.132812 10.8709V0.951904H4.02654C4.88865 0.951904 5.54708 1.20296 6.00182 1.70507C6.45656 2.19771 6.68393 2.87034 6.68393 3.72298C6.68393 4.5851 6.45656 5.26721 6.00182 5.76932C5.54708 6.26196 4.88865 6.50827 4.02654 6.50827H0.985452V10.8709H0.132812ZM0.985452 5.75511H4.02654C4.59496 5.75511 5.02602 5.59879 5.31971 5.28616C5.62287 4.96405 5.77445 4.55668 5.77445 4.06404V3.38193C5.77445 2.89877 5.62287 2.50087 5.31971 2.18823C5.02602 1.86612 4.59496 1.70507 4.02654 1.70507H0.985452V5.75511Z" fill="black"/>
<path d="M13.7826 10.8709H12.9299V0.951904H16.8237C17.6763 0.951904 18.33 1.19349 18.7847 1.67665C19.2489 2.15981 19.481 2.83719 19.481 3.70877C19.481 4.47615 19.2916 5.09668 18.9126 5.57037C18.5431 6.04406 18.0031 6.32827 17.2926 6.42301L19.7368 10.8709H18.7847L16.4115 6.47985H13.7826V10.8709ZM16.8237 5.75511C17.3921 5.75511 17.8231 5.59879 18.1168 5.28616C18.42 4.96405 18.5716 4.55668 18.5716 4.06404V3.38193C18.5716 2.89877 18.42 2.50087 18.1168 2.18823C17.8231 1.86612 17.3921 1.70507 16.8237 1.70507H13.7826V5.75511H16.8237Z" fill="black" fill-opacity="0.9"/>
<path d="M28.9385 11.4679C27.669 11.4679 26.6743 11.0368 25.9543 10.1747C25.2343 9.30311 24.8743 8.02415 24.8743 6.33781C24.8743 4.65148 25.2343 3.37726 25.9543 2.51514C26.6743 1.64356 27.669 1.20776 28.9385 1.20776C30.1985 1.20776 31.1885 1.64356 31.9085 2.51514C32.6286 3.38673 32.9886 4.66096 32.9886 6.33781C32.9886 8.01467 32.6286 9.28889 31.9085 10.1605C31.1885 11.0321 30.1985 11.4679 28.9385 11.4679ZM28.9385 10.7005C29.4122 10.7005 29.8385 10.62 30.2175 10.4589C30.6059 10.2884 30.9375 10.0421 31.2122 9.71995C31.487 9.39784 31.7001 9.00468 31.8517 8.54047C32.0033 8.07625 32.0791 7.55046 32.0791 6.96308V5.71254C32.0791 5.12517 32.0033 4.59938 31.8517 4.13516C31.7001 3.67095 31.487 3.28252 31.2122 2.96989C30.9375 2.64778 30.6059 2.40146 30.2175 2.23093C29.8385 2.0604 29.4122 1.97514 28.9385 1.97514C28.4648 1.97514 28.0338 2.0604 27.6453 2.23093C27.2569 2.40146 26.9253 2.64778 26.6506 2.96989C26.3759 3.28252 26.1627 3.67095 26.0111 4.13516C25.8595 4.59938 25.7838 5.12517 25.7838 5.71254V6.96308C25.7838 7.55046 25.8595 8.07625 26.0111 8.54047C26.1627 9.00468 26.3759 9.39784 26.6506 9.71995C26.9253 10.0421 27.2569 10.2884 27.6453 10.4589C28.0338 10.62 28.4648 10.7005 28.9385 10.7005Z" fill="black" fill-opacity="0.8"/>
<path d="M43.6148 11.0413C42.3832 11.0413 41.4311 10.615 40.7585 9.76239C40.0858 8.90028 39.7495 7.62605 39.7495 5.93972C39.7495 4.26286 40.0858 2.9839 40.7585 2.10284C41.4311 1.22178 42.3832 0.78125 43.6148 0.78125C44.4106 0.78125 45.0785 0.970726 45.6185 1.34968C46.168 1.72863 46.5943 2.24495 46.8975 2.89864L46.2012 3.31075C45.9833 2.77074 45.6517 2.34442 45.2064 2.03179C44.7706 1.70968 44.2401 1.54863 43.6148 1.54863C42.6864 1.54863 41.9616 1.88021 41.4406 2.54337C40.9195 3.20654 40.659 4.15391 40.659 5.38551V6.50815C40.659 7.73027 40.9195 8.66343 41.4406 9.30765C41.9616 9.95187 42.6864 10.274 43.6148 10.274C44.278 10.274 44.8322 10.1082 45.2775 9.7766C45.7227 9.43554 46.0543 8.9808 46.2722 8.41238L46.9685 8.82449C46.6748 9.5066 46.2438 10.0466 45.6754 10.4445C45.1069 10.8424 44.4201 11.0413 43.6148 11.0413Z" fill="black" fill-opacity="0.7"/>
<path d="M53.2949 10.8709V0.951904H59.0929V1.70507H54.1476V5.45668H58.8513V6.20985H54.1476V10.1178H59.0929V10.8709H53.2949Z" fill="black" fill-opacity="0.6"/>
<path d="M68.3472 11.0413C67.5324 11.0413 66.8503 10.8898 66.3009 10.5866C65.7608 10.274 65.2966 9.86187 64.9082 9.35028L65.5477 8.82449C65.8982 9.2887 66.2914 9.6487 66.7272 9.9045C67.1724 10.1603 67.7219 10.2882 68.3756 10.2882C69.143 10.2882 69.7304 10.1082 70.1377 9.74818C70.5546 9.3787 70.763 8.86712 70.763 8.21343C70.763 7.60711 70.5877 7.16184 70.2372 6.87762C69.8867 6.59341 69.394 6.38499 68.7593 6.25236L67.8782 6.06762C66.9309 5.87814 66.244 5.56077 65.8177 5.1155C65.3914 4.67024 65.1782 4.10181 65.1782 3.41022C65.1782 2.97443 65.254 2.59548 65.4056 2.27337C65.5572 1.94179 65.7703 1.66705 66.0451 1.44915C66.3293 1.23125 66.6656 1.06546 67.054 0.951778C67.4519 0.838093 67.8877 0.78125 68.3614 0.78125C69.1004 0.78125 69.7256 0.913883 70.2372 1.17915C70.7488 1.44441 71.1704 1.81863 71.502 2.30179L70.8625 2.77074C70.5877 2.37284 70.2419 2.06968 69.8251 1.86126C69.4177 1.64336 68.9156 1.53442 68.3188 1.53442C67.6082 1.53442 67.0445 1.69073 66.6277 2.00337C66.2203 2.30653 66.0166 2.76601 66.0166 3.3818C66.0166 3.96918 66.2014 4.40023 66.5709 4.67497C66.9403 4.94971 67.433 5.14866 68.0488 5.27182L68.9298 5.45656C69.9151 5.67446 70.6067 6.01077 71.0046 6.46552C71.4025 6.92026 71.6014 7.48868 71.6014 8.1708C71.6014 9.08028 71.3125 9.78607 70.7346 10.2882C70.1567 10.7903 69.3609 11.0413 68.3472 11.0413Z" fill="black" fill-opacity="0.5"/>
<path d="M80.5752 11.0413C79.7605 11.0413 79.0784 10.8898 78.5289 10.5866C77.9889 10.274 77.5247 9.86187 77.1362 9.35028L77.7757 8.82449C78.1262 9.2887 78.5194 9.6487 78.9552 9.9045C79.4005 10.1603 79.9499 10.2882 80.6036 10.2882C81.371 10.2882 81.9584 10.1082 82.3658 9.74818C82.7826 9.3787 82.991 8.86712 82.991 8.21343C82.991 7.60711 82.8158 7.16184 82.4652 6.87762C82.1147 6.59341 81.6221 6.38499 80.9873 6.25236L80.1063 6.06762C79.1589 5.87814 78.472 5.56077 78.0457 5.1155C77.6194 4.67024 77.4062 4.10181 77.4062 3.41022C77.4062 2.97443 77.482 2.59548 77.6336 2.27337C77.7852 1.94179 77.9983 1.66705 78.2731 1.44915C78.5573 1.23125 78.8936 1.06546 79.282 0.951778C79.6799 0.838093 80.1157 0.78125 80.5894 0.78125C81.3284 0.78125 81.9536 0.913883 82.4652 1.17915C82.9768 1.44441 83.3984 1.81863 83.73 2.30179L83.0905 2.77074C82.8158 2.37284 82.47 2.06968 82.0531 1.86126C81.6458 1.64336 81.1436 1.53442 80.5468 1.53442C79.8363 1.53442 79.2726 1.69073 78.8557 2.00337C78.4484 2.30653 78.2447 2.76601 78.2447 3.3818C78.2447 3.96918 78.4294 4.40023 78.7989 4.67497C79.1684 4.94971 79.661 5.14866 80.2768 5.27182L81.1578 5.45656C82.1431 5.67446 82.8347 6.01077 83.2326 6.46552C83.6305 6.92026 83.8295 7.48868 83.8295 8.1708C83.8295 9.08028 83.5405 9.78607 82.9626 10.2882C82.3847 10.7903 81.5889 11.0413 80.5752 11.0413Z" fill="black" fill-opacity="0.4"/>
</svg>
