<svg width="234" height="30" viewBox="0 0 234 30" fill="none" xmlns="http://www.w3.org/2000/svg">
<path d="M0 28.1353V0.47522H10.858C13.2621 0.47522 15.0981 1.17531 16.3662 2.57548C17.6343 3.94924 18.2684 5.82495 18.2684 8.20261C18.2684 10.6067 17.6343 12.5088 16.3662 13.909C15.0981 15.2828 13.2621 15.9696 10.858 15.9696H2.37766V28.1353H0ZM2.37766 13.8694H10.858C12.4431 13.8694 13.6451 13.4335 14.4641 12.5617C15.3095 11.6634 15.7322 10.5274 15.7322 9.15368V7.25155C15.7322 5.90421 15.3095 4.79463 14.4641 3.92283C13.6451 3.0246 12.4431 2.57548 10.858 2.57548H2.37766V13.8694Z" fill="white"/>
<path d="M38.0642 28.1353H35.6865V0.47522H46.5445C48.9222 0.47522 50.745 1.14889 52.0131 2.49623C53.3076 3.84357 53.9549 5.73249 53.9549 8.16299C53.9549 10.3029 53.4265 12.0333 52.3698 13.3542C51.3394 14.6751 49.8336 15.4677 47.8522 15.7319L54.6682 28.1353H52.0131L45.3953 15.8904H38.0642V28.1353ZM46.5445 13.8694C48.1296 13.8694 49.3316 13.4335 50.1506 12.5617C50.996 11.6634 51.4187 10.5274 51.4187 9.15368V7.25155C51.4187 5.90421 50.996 4.79463 50.1506 3.92283C49.3316 3.0246 48.1296 2.57548 46.5445 2.57548H38.0642V13.8694H46.5445Z" fill="white" fill-opacity="0.9"/>
<path d="M80.3259 29.8C76.7859 29.8 74.0119 28.598 72.0041 26.1939C69.9963 23.7634 68.9924 20.1969 68.9924 15.4944C68.9924 10.7919 69.9963 7.23867 72.0041 4.83459C74.0119 2.40409 76.7859 1.18884 80.3259 1.18884C83.8396 1.18884 86.6003 2.40409 88.6081 4.83459C90.6159 7.26508 91.6198 10.8184 91.6198 15.4944C91.6198 20.1705 90.6159 23.7238 88.6081 26.1543C86.6003 28.5848 83.8396 29.8 80.3259 29.8ZM80.3259 27.6601C81.6469 27.6601 82.8357 27.4356 83.8924 26.9865C84.9756 26.5109 85.9002 25.824 86.6664 24.9258C87.4325 24.0276 88.0269 22.9312 88.4496 21.6367C88.8723 20.3422 89.0837 18.876 89.0837 17.238V13.7508C89.0837 12.1129 88.8723 10.6466 88.4496 9.35214C88.0269 8.05764 87.4325 6.97448 86.6664 6.10267C85.9002 5.20445 84.9756 4.51757 83.8924 4.04204C82.8357 3.5665 81.6469 3.32874 80.3259 3.32874C79.005 3.32874 77.803 3.5665 76.7198 4.04204C75.6367 4.51757 74.712 5.20445 73.9459 6.10267C73.1798 6.97448 72.5853 8.05764 72.1626 9.35214C71.7399 10.6466 71.5286 12.1129 71.5286 13.7508V17.238C71.5286 18.876 71.7399 20.3422 72.1626 21.6367C72.5853 22.9312 73.1798 24.0276 73.9459 24.9258C74.712 25.824 75.6367 26.5109 76.7198 26.9865C77.803 27.4356 79.005 27.6601 80.3259 27.6601Z" fill="white" fill-opacity="0.8"/>
<path d="M121.253 28.6112C117.819 28.6112 115.164 27.4223 113.288 25.0447C111.412 22.6406 110.474 19.0873 110.474 14.3848C110.474 9.70878 111.412 6.14229 113.288 3.68537C115.164 1.22846 117.819 0 121.253 0C123.472 0 125.335 0.528369 126.841 1.58511C128.373 2.64184 129.562 4.08165 130.407 5.90452L128.465 7.05372C127.858 5.54787 126.933 4.35904 125.692 3.48723C124.476 2.58901 122.997 2.13989 121.253 2.13989C118.664 2.13989 116.643 3.06454 115.19 4.91383C113.737 6.76312 113.011 9.40496 113.011 12.8394V15.9699C113.011 19.3779 113.737 21.9801 115.19 23.7766C116.643 25.5731 118.664 26.4713 121.253 26.4713C123.103 26.4713 124.648 26.009 125.89 25.0843C127.131 24.1332 128.056 22.8652 128.664 21.2801L130.605 22.4293C129.786 24.3314 128.584 25.8372 126.999 26.9468C125.414 28.0564 123.499 28.6112 121.253 28.6112Z" fill="white" fill-opacity="0.7"/>
<path d="M148.248 28.1353V0.47522H164.416V2.57548H150.625V13.0372H163.742V15.1375H150.625V26.0351H164.416V28.1353H148.248Z" fill="white" fill-opacity="0.6"/>
<path d="M190.221 28.6112C187.949 28.6112 186.047 28.1885 184.514 27.3431C183.009 26.4713 181.714 25.3221 180.631 23.8955L182.414 22.4293C183.392 23.7238 184.488 24.7277 185.703 25.441C186.945 26.1543 188.477 26.5109 190.3 26.5109C192.44 26.5109 194.078 26.009 195.214 25.0051C196.376 23.9747 196.957 22.5481 196.957 20.7253C196.957 19.0345 196.469 17.7928 195.491 17.0003C194.514 16.2077 193.14 15.6265 191.37 15.2566L188.913 14.7415C186.271 14.2131 184.356 13.3281 183.167 12.0864C181.978 10.8448 181.384 9.25966 181.384 7.33112C181.384 6.11587 181.595 5.05913 182.018 4.1609C182.441 3.23626 183.035 2.47012 183.801 1.8625C184.594 1.25488 185.531 0.792553 186.615 0.475533C187.724 0.158511 188.939 0 190.26 0C192.321 0 194.065 0.369858 195.491 1.10957C196.918 1.84929 198.093 2.89282 199.018 4.24016L197.235 5.54787C196.469 4.4383 195.504 3.59291 194.342 3.0117C193.206 2.40408 191.806 2.10027 190.141 2.10027C188.16 2.10027 186.588 2.53617 185.426 3.40798C184.29 4.25337 183.722 5.53466 183.722 7.25186C183.722 8.88981 184.237 10.0918 185.267 10.858C186.298 11.6241 187.671 12.1789 189.389 12.5223L191.845 13.0375C194.593 13.6451 196.522 14.583 197.631 15.8511C198.741 17.1192 199.295 18.7043 199.295 20.6064C199.295 23.1426 198.49 25.1107 196.878 26.5109C195.267 27.9111 193.048 28.6112 190.221 28.6112Z" fill="white" fill-opacity="0.5"/>
<path d="M224.322 28.6112C222.05 28.6112 220.148 28.1885 218.616 27.3431C217.11 26.4713 215.816 25.3221 214.732 23.8955L216.516 22.4293C217.493 23.7238 218.59 24.7277 219.805 25.441C221.046 26.1543 222.579 26.5109 224.402 26.5109C226.541 26.5109 228.179 26.009 229.315 25.0051C230.478 23.9747 231.059 22.5481 231.059 20.7253C231.059 19.0345 230.57 17.7928 229.593 17.0003C228.615 16.2077 227.242 15.6265 225.472 15.2566L223.015 14.7415C220.373 14.2131 218.457 13.3281 217.269 12.0864C216.08 10.8448 215.485 9.25966 215.485 7.33112C215.485 6.11587 215.697 5.05913 216.119 4.1609C216.542 3.23626 217.136 2.47012 217.903 1.8625C218.695 1.25488 219.633 0.792553 220.716 0.475533C221.826 0.158511 223.041 0 224.362 0C226.423 0 228.166 0.369858 229.593 1.10957C231.019 1.84929 232.195 2.89282 233.12 4.24016L231.336 5.54787C230.57 4.4383 229.606 3.59291 228.444 3.0117C227.308 2.40408 225.907 2.10027 224.243 2.10027C222.262 2.10027 220.69 2.53617 219.527 3.40798C218.391 4.25337 217.823 5.53466 217.823 7.25186C217.823 8.88981 218.339 10.0918 219.369 10.858C220.399 11.6241 221.773 12.1789 223.49 12.5223L225.947 13.0375C228.695 13.6451 230.623 14.583 231.733 15.8511C232.842 17.1192 233.397 18.7043 233.397 20.6064C233.397 23.1426 232.591 25.1107 230.98 26.5109C229.368 27.9111 227.149 28.6112 224.322 28.6112Z" fill="white" fill-opacity="0.4"/>
</svg>
