<svg width="20" height="20" viewBox="0 0 20 20" fill="none" xmlns="http://www.w3.org/2000/svg">
<path d="M17.4824 3.75018H13.125V1.87518C13.125 1.70942 13.0592 1.55045 12.9419 1.43324C12.8247 1.31603 12.6658 1.25018 12.5 1.25018H7.5C7.33424 1.25018 7.17527 1.31603 7.05806 1.43324C6.94085 1.55045 6.875 1.70942 6.875 1.87518V3.75018H2.51758L2.5 5.31268H3.78906L4.57383 17.5783C4.59369 17.8955 4.73363 18.1932 4.96518 18.4109C5.19673 18.6286 5.5025 18.7499 5.82031 18.7502H14.1797C14.4973 18.7501 14.803 18.6292 15.0347 18.4119C15.2663 18.1946 15.4066 17.8972 15.427 17.5803L16.2109 5.31268H17.5L17.4824 3.75018ZM6.875 16.2502L6.52344 6.25018H7.8125L8.16406 16.2502H6.875ZM10.625 16.2502H9.375V6.25018H10.625V16.2502ZM11.5625 3.75018H8.4375V2.65643C8.4375 2.61499 8.45396 2.57525 8.48326 2.54595C8.51257 2.51664 8.55231 2.50018 8.59375 2.50018H11.4062C11.4477 2.50018 11.4874 2.51664 11.5167 2.54595C11.546 2.57525 11.5625 2.61499 11.5625 2.65643V3.75018ZM13.125 16.2502H11.8359L12.1875 6.25018H13.4766L13.125 16.2502Z" fill="black"/>
</svg>
